<?xml version="1.0" encoding="UTF-8" standalone="no"?>
<!-- Created with Inkscape (http://www.inkscape.org/) -->

<svg
   xmlns:dc="http://purl.org/dc/elements/1.1/"
   xmlns:cc="http://creativecommons.org/ns#"
   xmlns:rdf="http://www.w3.org/1999/02/22-rdf-syntax-ns#"
   xmlns:svg="http://www.w3.org/2000/svg"
   xmlns="http://www.w3.org/2000/svg"
   xmlns:sodipodi="http://sodipodi.sourceforge.net/DTD/sodipodi-0.dtd"
   xmlns:inkscape="http://www.inkscape.org/namespaces/inkscape"
   width="210mm"
   height="297mm"
   viewBox="0 0 210 297"
   version="1.1"
   id="svg8"
   inkscape:version="0.92.5 (2060ec1f9f, 2020-04-08)"
   sodipodi:docname="logo.svg">
  <defs
     id="defs2" />
  <sodipodi:namedview
     id="base"
     pagecolor="#ffffff"
     bordercolor="#666666"
     borderopacity="1.0"
     inkscape:pageopacity="0.0"
     inkscape:pageshadow="2"
     inkscape:zoom="0.35"
     inkscape:cx="-64.285714"
     inkscape:cy="217.14286"
     inkscape:document-units="mm"
     inkscape:current-layer="layer1"
     showgrid="false"
     inkscape:window-width="1920"
     inkscape:window-height="1017"
     inkscape:window-x="1358"
     inkscape:window-y="-8"
     inkscape:window-maximized="1" />
  <metadata
     id="metadata5">
    <rdf:RDF>
      <cc:Work
         rdf:about="">
        <dc:format>image/svg+xml</dc:format>
        <dc:type
           rdf:resource="http://purl.org/dc/dcmitype/StillImage" />
        <dc:title></dc:title>
      </cc:Work>
    </rdf:RDF>
  </metadata>
  <g
     inkscape:label="Layer 1"
     inkscape:groupmode="layer"
     id="layer1">
    <rect
       style="opacity:0.87099998;fill:#999999;fill-opacity:1;fill-rule:nonzero;stroke:none;stroke-width:0.26199999;stroke-miterlimit:4;stroke-dasharray:none;stroke-dashoffset:74.26771545;stroke-opacity:1"
       id="rect815"
       width="147.41072"
       height="66.523811"
       x="22.678572"
       y="132.20238"
       ry="7.2162719" />
    <path
       style="opacity:0.87099998;fill:#ffffff;fill-opacity:1;fill-rule:nonzero;stroke:none;stroke-width:0.26199999;stroke-miterlimit:4;stroke-dasharray:none;stroke-dashoffset:74.26771545;stroke-opacity:1"
       id="path831"
       d="m 46.491072,163.91983 c 0.100772,3.06261 -0.07562,6.10738 -0.353261,9.15512 -0.210516,2.03118 -0.32775,4.06864 -0.37855,6.10946 -0.03251,1.87767 -0.03006,3.75571 -0.02903,5.63359 0.0011,1.06168 0.0024,2.12337 0.0032,3.18505 0.0034,3.74177 -5.288306,3.74652 -5.291667,0.005 v 0 c -0.0011,-1.06229 -0.0021,-2.12459 -0.0032,-3.18688 -0.0011,-1.92313 -0.0035,-3.84644 0.03069,-5.76935 0.0546,-2.15681 0.177163,-4.31028 0.398735,-6.45702 0.263499,-2.88845 0.433459,-5.77168 0.331409,-8.67472 0,-3.74177 5.291667,-3.74177 5.291667,0 z"
       inkscape:connector-curvature="0" />
    <path
       style="opacity:0.87099998;fill:#ffffff;fill-opacity:1;fill-rule:nonzero;stroke:none;stroke-width:0.26199999;stroke-miterlimit:4;stroke-dasharray:none;stroke-dashoffset:74.26771545;stroke-opacity:1"
       id="path833"
       d="m 45.735118,180.55078 c 0,2.30465 0,4.6093 0,6.91395 0,1.90269 0,3.80538 0,5.70806 0,3.74178 -5.291667,3.74178 -5.291667,0 v 0 c 0,-1.90268 0,-3.80537 0,-5.70806 0,-2.30465 0,-4.6093 0,-6.91395 0,-3.74178 5.291667,-3.74178 5.291667,0 z"
       inkscape:connector-curvature="0" />
    <path
       style="opacity:0.87099998;fill:#ffffff;fill-opacity:1;fill-rule:nonzero;stroke:none;stroke-width:0.26199999;stroke-miterlimit:4;stroke-dasharray:none;stroke-dashoffset:74.26771545;stroke-opacity:1"
       id="path835"
       d="m 60.098214,166.18768 c 0,3.15425 0,6.3085 0,9.46275 0.01881,2.69968 0.06227,5.38885 -0.23132,8.07507 -0.261223,1.88939 -0.400333,3.79135 -0.477967,5.69613 -0.0076,0.26954 -0.01516,0.53908 -0.02275,0.80862 -0.106251,3.74026 -5.395783,3.59 -5.289534,-0.15026 v 0 c 0.0084,-0.29192 0.01672,-0.58384 0.02508,-0.87575 0.08399,-2.02659 0.229576,-4.0506 0.505647,-6.06112 0.280101,-2.49136 0.201025,-4.98821 0.199173,-7.49269 0,-3.15425 0,-6.3085 0,-9.46275 0,-3.74177 5.291667,-3.74177 5.291667,0 z"
       inkscape:connector-curvature="0" />
    <path
       style="opacity:0.87099998;fill:#ffffff;fill-opacity:1;fill-rule:nonzero;stroke:none;stroke-width:0.26199999;stroke-miterlimit:4;stroke-dasharray:none;stroke-dashoffset:74.26771545;stroke-opacity:1"
       id="path837"
       d="m 75.973214,170.05787 c 0,3.40664 0,6.81328 0,10.21992 0,2.63684 0,5.27367 0,7.91051 0,1.86009 0,3.72017 0,5.58025 0,0.28529 0,0.57057 0,0.85585 0,3.74178 -5.291667,3.74178 -5.291667,0 v 0 c 0,-0.28528 0,-0.57056 0,-0.85585 0,-1.86008 0,-3.72016 0,-5.58025 0,-2.63684 0,-5.27367 0,-7.91051 0,-3.40664 0,-6.81328 0,-10.21992 0,-3.74177 5.291667,-3.74177 5.291667,0 z"
       inkscape:connector-curvature="0" />
    <path
       style="opacity:0.87099998;fill:#ffffff;fill-opacity:1;fill-rule:nonzero;stroke:none;stroke-width:0.26199999;stroke-miterlimit:4;stroke-dasharray:none;stroke-dashoffset:74.26771545;stroke-opacity:1"
       id="path839"
       d="m 94.872023,167.79001 c 0,3.2979 0,6.5958 0,9.8937 0,2.39359 0,4.78718 0,7.18077 0,1.97543 0,3.95086 0,5.92629 0,1.93018 0,3.86035 0,5.79054 0,1.41261 0,2.82522 0,4.23783 0,3.74178 -5.291667,3.74178 -5.291667,0 v 0 c 0,-1.41261 0,-2.82522 0,-4.23783 0,-1.93019 0,-3.86036 0,-5.79054 0,-1.97543 0,-3.95086 0,-5.92629 0,-2.39359 0,-4.78718 0,-7.18077 0,-3.2979 0,-6.5958 0,-9.8937 0,-3.74177 5.291667,-3.74177 5.291667,0 z"
       inkscape:connector-curvature="0" />
    <path
       style="opacity:0.87099998;fill:#ffffff;fill-opacity:1;fill-rule:nonzero;stroke:none;stroke-width:0.26199999;stroke-miterlimit:4;stroke-dasharray:none;stroke-dashoffset:74.26771545;stroke-opacity:1"
       id="path841"
       d="m 114.52678,173.08168 c 0,2.93836 0,5.87672 0,8.81508 0,2.91905 0,5.83809 0,8.75714 0,2.46351 0,4.92702 0,7.39053 0,0.62285 0,1.2457 0,1.86854 0,3.74177 -5.29166,3.74177 -5.29166,0 v 0 c 0,-0.62284 0,-1.24569 0,-1.86854 0,-2.46351 0,-4.92702 0,-7.39053 0,-2.91905 0,-5.83809 0,-8.75714 0,-2.93836 0,-5.87672 0,-8.81508 0,-3.74177 5.29166,-3.74177 5.29166,0 z"
       inkscape:connector-curvature="0" />
    <path
       style="opacity:0.87099998;fill:#ffffff;fill-opacity:1;fill-rule:nonzero;stroke:none;stroke-width:0.26199999;stroke-miterlimit:4;stroke-dasharray:none;stroke-dashoffset:74.26771545;stroke-opacity:1"
       id="path843"
       d="m 131.91369,171.56977 c 0,3.44825 0,6.8965 0,10.34474 0,2.66757 0,5.33513 0,8.0027 0,2.34924 0,4.69848 0,7.04772 0,0.34679 0,0.69358 0,1.04037 0,3.74177 -5.29167,3.74177 -5.29167,0 v 0 c 0,-0.34679 0,-0.69358 0,-1.04037 0,-2.34924 0,-4.69848 0,-7.04772 0,-2.66757 0,-5.33513 0,-8.0027 0,-3.44824 0,-6.89649 0,-10.34474 0,-3.74177 5.29167,-3.74177 5.29167,0 z"
       inkscape:connector-curvature="0" />
    <path
       style="opacity:0.87099998;fill:#ffffff;fill-opacity:1;fill-rule:nonzero;stroke:none;stroke-width:0.26199999;stroke-miterlimit:4;stroke-dasharray:none;stroke-dashoffset:74.26771545;stroke-opacity:1"
       id="path845"
       d="m 148.54464,174.50316 c 0,2.91711 0,5.83422 0,8.75133 0,2.39323 0,4.78646 0,7.1797 -0.0265,2.01265 0.0816,4.02767 -0.10527,6.03321 -0.31349,2.00214 -0.46928,4.02087 -0.56887,6.04327 -0.18523,3.73718 -5.47041,3.47523 -5.28518,-0.26196 v 0 c 0.10576,-2.12149 0.26374,-4.2406 0.59207,-6.34103 0.23943,-1.80635 -0.0235,-3.65702 0.0756,-5.47349 0,-2.39324 0,-4.78647 0,-7.1797 0,-2.91711 0,-5.83422 0,-8.75133 0,-3.74177 5.29167,-3.74177 5.29167,0 z"
       inkscape:connector-curvature="0" />
    <path
       style="opacity:0.87099998;fill:#000000;fill-opacity:1;fill-rule:nonzero;stroke:none;stroke-width:0.26199999;stroke-miterlimit:4;stroke-dasharray:none;stroke-dashoffset:74.26771545;stroke-opacity:1"
       id="path849"
       d="m 53.364635,162.07974 c 0.293962,2.3612 0.477745,4.73363 0.59758,7.10944 0.06818,1.47659 0.08301,2.95478 0.09148,4.43267 0.0213,3.74171 -5.270291,3.77182 -5.291582,0.0301 v 0 c -0.0079,-1.39943 -0.02114,-2.79915 -0.08491,-4.19739 -0.112208,-2.24518 -0.28619,-4.48709 -0.563375,-6.71847 -0.464111,-3.71288 4.786693,-4.36923 5.250802,-0.65636 z"
       inkscape:connector-curvature="0" />
    <path
       style="opacity:0.87099998;fill:#000000;fill-opacity:1;fill-rule:nonzero;stroke:none;stroke-width:0.26199999;stroke-miterlimit:4;stroke-dasharray:none;stroke-dashoffset:74.26771545;stroke-opacity:1"
       id="path851"
       d="m 66.901784,166.94364 c 0,2.30465 0,4.6093 0,6.91395 0,1.55245 0,3.10491 0,4.65736 0,3.74178 -5.291666,3.74178 -5.291666,0 v 0 c 0,-1.55245 0,-3.10491 0,-4.65736 0,-2.30465 0,-4.6093 0,-6.91395 0,-3.74178 5.291666,-3.74178 5.291666,0 z"
       inkscape:connector-curvature="0" />
    <path
       style="opacity:0.87099998;fill:#000000;fill-opacity:1;fill-rule:nonzero;stroke:none;stroke-width:0.26199999;stroke-miterlimit:4;stroke-dasharray:none;stroke-dashoffset:74.26771545;stroke-opacity:1"
       id="path853"
       d="m 84.28869,167.79001 c 0,2.928 0,5.85599 0,8.78399 0.07696,1.88307 -0.237982,3.74688 -0.476928,5.60733 -0.47684,3.71126 -5.725361,3.03691 -5.248521,-0.67436 v 0 c 0.210413,-1.63702 0.507871,-3.27575 0.433782,-4.93297 0,-2.928 0,-5.85599 0,-8.78399 0,-3.74177 5.291667,-3.74177 5.291667,0 z"
       inkscape:connector-curvature="0" />
    <path
       style="opacity:0.87099998;fill:#000000;fill-opacity:1;fill-rule:nonzero;stroke:none;stroke-width:0.26199999;stroke-miterlimit:4;stroke-dasharray:none;stroke-dashoffset:74.26771545;stroke-opacity:1"
       id="path855"
       d="m 122.08631,169.21149 c 0,2.3764 0,4.7528 0,7.1292 0,1.59023 0,3.18046 0,4.77069 0,3.74177 -5.29167,3.74177 -5.29167,0 v 0 c 0,-1.59023 0,-3.18046 0,-4.77069 0,-2.3764 0,-4.7528 0,-7.1292 0,-3.74177 5.29167,-3.74177 5.29167,0 z"
       inkscape:connector-curvature="0" />
    <path
       style="opacity:0.87099998;fill:#000000;fill-opacity:1;fill-rule:nonzero;stroke:none;stroke-width:0.26199999;stroke-miterlimit:4;stroke-dasharray:none;stroke-dashoffset:74.26771545;stroke-opacity:1"
       id="path857"
       d="m 144.00893,170.7234 c 0,2.51097 0,5.02193 0,7.5329 0,1.94941 0,3.89881 0,5.84821 0,3.74178 -5.29167,3.74178 -5.29167,0 v 0 c 0,-1.9494 0,-3.8988 0,-5.84821 0,-2.51097 0,-5.02193 0,-7.5329 0,-3.74178 5.29167,-3.74178 5.29167,0 z"
       inkscape:connector-curvature="0" />
    <path
       style="opacity:0.87099998;fill:#784421;fill-opacity:1;fill-rule:nonzero;stroke:none;stroke-width:0.26199999;stroke-miterlimit:4;stroke-dasharray:none;stroke-dashoffset:74.26771545;stroke-opacity:1"
       id="path863"
       d="m 129.08429,127.81225 c -1.52424,1.51538 -2.80573,3.23336 -4.20944,4.85374 -0.88408,1.10701 -1.73487,2.25673 -2.296,3.56445 -0.64017,1.17187 -0.9655,2.43017 -1.13191,3.74332 -0.1666,1.00409 0.31882,1.88011 0.62686,2.81254 0.63868,1.34855 1.28798,2.68319 2.07248,3.9543 0.78131,1.27334 1.5569,2.60606 2.60504,3.6847 0.64121,0.29546 1.23208,0.66273 1.93219,0.83068 1.15599,0.21096 2.33729,0.21371 3.50849,0.23023 1.37767,0.11913 2.69998,-0.0766 4.04968,-0.30641 1.82873,-0.28595 3.67898,-0.37563 5.52658,-0.43024 1.58483,-0.0358 3.17019,-0.0323 4.75533,-0.0313 1.67935,-0.10034 3.32281,0.10479 4.97366,0.3835 1.66494,0.3671 3.15975,1.15094 4.61102,2.01368 1.11639,0.43409 2.17479,0.99726 3.25334,1.51784 1.51958,0.85093 2.89921,1.83108 4.04474,3.14505 1.33854,1.60903 1.97409,3.53775 2.32492,5.56554 0.22438,1.65686 0.21843,3.33221 0.21997,5.00067 0.22001,1.10966 0.67242,2.14907 0.96949,3.24431 0.23582,1.26683 0.4625,2.53595 0.91383,3.74855 0.44119,1.38157 1.25843,2.60108 1.93928,3.87259 0.57232,1.32351 1.13238,2.66196 2.2695,3.59152 1.07065,0.88274 2.26326,1.41464 3.53194,1.92047 1.16377,0.48235 2.40743,0.62875 3.65182,0.71976 1.44149,0.0771 2.8858,0.0679 4.32883,0.0664 0.82712,-0.26883 1.67766,-0.68648 2.40021,-1.18892 1.30758,-1.03733 2.65882,-2.02345 3.82355,-3.22434 0.9201,-1.23493 1.84811,-2.45388 2.68493,-3.74787 0.72156,-1.59627 1.94323,-2.87142 2.80798,-4.38425 0.70048,-1.36271 1.6373,-2.60651 2.05702,-4.0909 0.19074,-1.36729 0.61042,-2.6853 0.8662,-4.03958 0.21196,-1.13434 0.23449,-2.25025 0.0544,-3.3822 -0.17993,-1.45353 -0.78297,-2.79429 -1.26005,-4.16541 -0.68161,-1.6475 -1.48347,-3.2401 -2.13112,-4.90162 -0.60795,-1.27279 -1.2715,-2.5435 -2.02238,-3.74337 -0.63385,-0.9551 -1.14423,-2.2699 -2.16072,-2.90064 -0.82912,-0.79072 -1.92603,-1.162 -2.91554,-1.70738 -1.17094,-0.62917 -2.28135,-1.37286 -3.51696,-1.8729 -1.37031,-0.71563 -2.74939,-1.39366 -4.17607,-1.99025 -1.62588,-0.49976 -3.08625,-1.35593 -4.5464,-2.20282 -1.85753,-1.13979 -3.19992,-2.75264 -4.28225,-4.6143 -1.04328,-1.95571 -1.3479,-4.11442 -1.48832,-6.29239 -0.19316,-2.20247 0.16336,-4.38712 0.4177,-6.56804 0.21826,-1.60739 0.29057,-3.19844 0.0911,-4.80577 -0.056,-1.18445 -0.63979,-2.10112 -1.3778,-2.9957 -0.90975,-0.97074 -2.0608,-1.68935 -3.16444,-2.42148 -1.50494,-1.03254 -3.0999,-1.89502 -4.75981,-2.64808 -1.28758,-0.48222 -2.60383,-0.65191 -3.95974,-0.50925 -1.57485,0.29729 -3.16948,0.60992 -4.72372,1.01747 -1.33105,0.30896 -2.49207,1.087 -3.6919,1.72272 -1.49742,0.68203 -3.02392,1.29185 -4.47907,2.06485 -1.38436,0.69673 -2.84468,1.25072 -4.13357,2.12395 -0.65148,0.44349 -1.36158,0.78784 -2.05279,1.16296 -3.28936,1.78354 -5.81166,-2.86831 -2.5223,-4.65185 v 0 c 0.57226,-0.31004 1.16242,-0.5874 1.70151,-0.95456 1.45589,-0.9187 2.99979,-1.65926 4.56312,-2.37394 1.45509,-0.7476 2.94685,-1.41303 4.45184,-2.05058 1.57,-0.82695 3.10369,-1.79657 4.85878,-2.17193 1.82726,-0.45495 3.68281,-0.86011 5.53931,-1.15813 2.28388,-0.19458 4.51343,0.0918 6.64895,0.96582 1.90643,0.877 3.75095,1.86362 5.48474,3.05101 1.58329,1.05043 3.1982,2.12013 4.42482,3.59352 1.252,1.66773 2.31697,3.46467 2.44606,5.60289 0.23636,2.02229 0.18819,4.0302 -0.0891,6.04934 -0.21814,1.86877 -0.5539,3.73801 -0.3923,5.62554 0.0819,1.37395 0.19692,2.75632 0.8114,4.01387 0.57708,1.06925 1.30839,1.97251 2.33689,2.64705 1.26482,0.73648 2.52016,1.48548 3.93913,1.90016 1.42319,0.60156 2.82217,1.25156 4.17876,1.99139 1.41597,0.61027 2.73865,1.38737 4.07704,2.14884 1.20265,0.73075 2.61336,1.14617 3.62057,2.1871 1.38664,1.18628 2.49414,2.62665 3.34597,4.24526 0.90542,1.48461 1.74151,3.03245 2.4546,4.61529 0.65538,1.72391 1.5382,3.35085 2.19464,5.07528 0.57632,1.67651 1.28058,3.32325 1.49103,5.10121 0.25503,1.73282 0.2378,3.45553 -0.0906,5.18166 -0.30248,1.53882 -0.73967,3.04409 -1.00378,4.59057 -0.59676,1.86137 -1.57473,3.51423 -2.54514,5.20352 -0.93564,1.57999 -2.14943,2.95062 -2.9465,4.60848 -1.0406,1.58346 -2.15747,3.11319 -3.35714,4.57991 -1.45862,1.45184 -3.06983,2.72594 -4.72169,3.95152 -1.60683,0.99779 -3.33201,1.90517 -5.2553,2.02893 -1.57883,0.002 -3.15918,0.0106 -4.73599,-0.0816 -1.77867,-0.1393 -3.54972,-0.3955 -5.21174,-1.08141 -1.85095,-0.73937 -3.57962,-1.61965 -5.12071,-2.91113 -1.50985,-1.42503 -2.65769,-3.06786 -3.38868,-5.02571 -0.80323,-1.51406 -1.75946,-2.96795 -2.26625,-4.61912 -0.45453,-1.34751 -0.82319,-2.72336 -1.03139,-4.13147 -0.39593,-1.53392 -1.13222,-2.98177 -1.14736,-4.60033 -0.001,-1.38094 0.01,-2.76707 -0.14894,-4.14101 -0.17166,-1.12136 -0.4542,-2.18822 -1.20024,-3.07928 -0.52118,-0.82775 -1.51506,-1.14947 -2.26342,-1.73683 -1.20962,-0.59179 -2.41251,-1.18417 -3.64322,-1.7281 -0.89193,-0.53047 -1.78267,-1.04859 -2.78751,-1.34419 -1.36517,-0.23052 -2.70318,-0.4181 -4.09603,-0.30965 -1.53242,-0.001 -3.06504,-0.005 -4.59718,0.029 -1.60196,0.0464 -3.20652,0.11774 -4.79328,0.35746 -1.66397,0.28325 -3.32096,0.49486 -5.01421,0.3809 -1.62629,-0.024 -3.26814,-0.0468 -4.8589,-0.42567 -1.61323,-0.47792 -3.14817,-1.22467 -4.40988,-2.35477 -1.22712,-1.37798 -2.29707,-2.89333 -3.21442,-4.49473 -0.98619,-1.62296 -1.84498,-3.3133 -2.58544,-5.06294 -0.55235,-1.68978 -1.18295,-3.34843 -0.84499,-5.16656 0.25127,-1.81609 0.69366,-3.5858 1.55405,-5.21974 0.81507,-1.75726 1.87515,-3.37286 3.12326,-4.85632 1.48882,-1.70993 2.84904,-3.52543 4.46328,-5.12612 2.64584,-2.64583 6.38761,1.09594 3.74178,3.74178 z"
       inkscape:connector-curvature="0" />
    <path
       style="opacity:0.87099998;fill:#333333;fill-opacity:1;fill-rule:nonzero;stroke:none;stroke-width:0.26199999;stroke-miterlimit:4;stroke-dasharray:none;stroke-dashoffset:74.26771545;stroke-opacity:1"
       id="path867"
       d="m 134.41394,111.6081 c -1.71004,-1.88611 -3.50343,-3.6928 -5.19217,-5.59843 -1.11933,-1.36286 -2.44564,-2.49202 -3.84536,-3.55077 -1.65899,-1.0044 -3.26758,-2.07807 -4.85758,-3.187351 -1.09877,-0.909722 -2.27851,-1.671307 -3.33856,-2.631977 -1.42616,-1.218139 -2.78429,-2.48879 -4.07681,-3.851899 -1.28654,-1.374921 -2.73752,-2.579048 -4.05593,-3.923504 -1.18304,-0.955357 -2.40145,-1.876324 -3.53434,-2.892671 -1.44706,-1.348663 -3.03772,-2.526594 -4.51551,-3.838702 C 99.948448,81.198478 98.944508,80.227232 97.877854,79.309361 96.59091,78.474273 95.4905,77.405988 94.331236,76.412933 93.082339,75.205549 92.050768,73.81319 90.850605,72.558769 89.517687,71.251815 88.261369,69.858278 86.844343,68.641017 85.546932,67.572212 84.361088,66.370191 83.007374,65.369188 81.843114,64.390404 80.728864,63.358775 79.551428,62.395515 78.392945,61.457077 77.424607,60.319472 76.326367,59.315577 75.240162,58.289269 74.19918,57.208395 73.200169,56.096532 72.459664,55.513276 71.703281,54.92724 70.93664,54.367175 70.181162,53.616203 69.257885,53.093183 68.376021,52.505961 67.376124,51.867879 66.36405,51.26065 65.333869,50.67066 64.718342,50.299686 64.109216,49.942056 63.508752,49.545996 60.412783,47.444604 63.384596,43.066242 66.480565,45.167634 v 0 c 0.478131,0.34589 1.010134,0.591537 1.4997,0.920634 1.124154,0.653108 2.232049,1.323655 3.331748,2.01523 0.952759,0.636524 1.966266,1.2236 2.790512,2.023523 1.042683,0.788247 2.125642,1.544217 3.059488,2.461588 0.856073,0.992481 1.801181,1.916181 2.740904,2.826965 1.023083,0.940696 1.939253,1.988364 3.000274,2.885138 1.122254,0.919067 2.196182,1.890657 3.289668,2.843027 1.437624,1.097359 2.751717,2.336099 4.127063,3.507028 1.524887,1.341192 2.924943,2.815069 4.357593,4.253347 1.08322,1.136081 2.053007,2.358138 3.117246,3.508102 1.148025,1.001141 2.262739,2.036276 3.534659,2.886104 1.09426,0.941634 2.12064,1.945127 3.20235,2.89596 1.47343,1.343342 3.11655,2.492626 4.55695,3.876281 1.1744,1.118587 2.56153,2.007367 3.75653,3.108629 1.3145,1.37678 2.82396,2.552102 4.09906,3.968488 1.20447,1.271667 2.46357,2.454225 3.8021,3.582376 0.88346,0.813279 1.89679,1.420445 2.80388,2.204218 1.64349,1.150495 3.32336,2.235456 5.02052,3.305907 1.67627,1.270474 3.25782,2.642291 4.61228,4.260981 1.61688,1.82666 3.33892,3.55401 4.97263,5.36516 2.64583,2.64584 -1.09594,6.38761 -3.74178,3.74178 z"
       inkscape:connector-curvature="0" />
    <path
       style="opacity:0.87099998;fill:#6c5353;fill-opacity:1;fill-rule:nonzero;stroke:none;stroke-width:0.26199999;stroke-miterlimit:4;stroke-dasharray:none;stroke-dashoffset:74.26771545;stroke-opacity:1"
       id="path869"
       d="m 121.42477,125.73177 c -1.66044,-1.91201 -3.51793,-3.63963 -5.24708,-5.48856 -1.24044,-1.00993 -2.46283,-2.02624 -3.59901,-3.1542 -1.15852,-1.12789 -2.37642,-2.15992 -3.69651,-3.09135 -1.64357,-0.94909 -3.2051,-2.03006 -4.79197,-3.06896 -1.55018,-1.21787 -3.18528,-2.29461 -4.891213,-3.27744 -1.780545,-1.02809 -3.393133,-2.32209 -4.947147,-3.66073 -1.357786,-1.19028 -2.702949,-2.37706 -4.158165,-3.44846 -1.748431,-1.187095 -3.051228,-2.853211 -4.44281,-4.410239 -1.176573,-1.385522 -2.188689,-2.89016 -3.295478,-4.328522 -0.98049,-1.371161 -1.981761,-2.73064 -2.951697,-4.110257 -0.993698,-1.438908 -2.098384,-2.794331 -3.155891,-4.185119 -0.7048,-1.168249 -1.580232,-2.235186 -2.503652,-3.236573 -0.993206,-1.200497 -1.957588,-2.422713 -2.89415,-3.667035 -0.972449,-1.372283 -2.157494,-2.569268 -3.223001,-3.865229 -0.961218,-1.247963 -2.089525,-2.348746 -3.1218,-3.536297 -1.012444,-1.013552 -1.934625,-2.138352 -3.007574,-3.091214 -1.188416,-1.020871 -2.299189,-2.126099 -3.445005,-3.193047 -1.035177,-1.012608 -1.965528,-2.119511 -2.926056,-3.202088 -0.93259,-1.32936 -2.349428,-2.908729 -2.339663,-4.654341 0.0034,-0.6111 0.202999,-1.205243 0.304499,-1.807864 1.006345,-1.999477 2.872875,-3.217029 4.655814,-4.458803 1.303917,-1.083895 2.737054,-2.011357 4.16808,-2.918341 3.165927,-1.994437 5.986486,2.482858 2.820561,4.477295 v 0 c -1.373907,0.858629 -2.727441,1.762644 -3.978733,2.793309 -0.422936,0.28964 -2.607138,1.961243 -2.620417,1.961285 -0.07368,2.33e-4 -0.0082,-0.147132 -0.01225,-0.220699 -0.03903,-0.225904 -0.229013,-0.883 -0.211527,-0.654415 0.0546,0.713808 0.847887,1.374753 1.172845,1.971672 0.853517,0.962993 1.671207,1.95584 2.590419,2.856632 1.120833,1.060006 2.225345,2.137294 3.394049,3.145793 1.199404,1.116872 2.294384,2.346285 3.430339,3.525144 1.066437,1.229328 2.235525,2.367256 3.22689,3.661145 1.099984,1.363258 2.361316,2.595743 3.360994,4.041913 0.83086,1.122479 1.712428,2.20423 2.587074,3.29316 1.003607,1.129549 2.018626,2.28078 2.790992,3.584213 1.091451,1.449189 2.249315,2.848781 3.274385,4.347958 0.915845,1.320427 1.880942,2.610012 2.811468,3.918913 1.026695,1.340258 1.978885,2.728698 3.051276,4.033287 1.141071,1.286423 2.195176,2.683584 3.62881,3.66811 1.568561,1.156395 3.024815,2.430727 4.488858,3.713162 1.289132,1.131682 2.649406,2.206772 4.130456,3.077592 1.78297,1.03763 3.52147,2.14238 5.13772,3.42942 1.63847,1.07356 3.25669,2.1787 4.94538,3.17332 1.56145,1.10375 3.00243,2.33218 4.37595,3.66232 1.18122,1.17815 2.50072,2.18012 3.73828,3.2981 1.77137,1.90944 3.69997,3.67071 5.3934,5.65227 2.43511,2.84096 -1.58262,6.28473 -4.01773,3.44377 z"
       inkscape:connector-curvature="0" />
    <path
       style="opacity:0.87099998;fill:#6c5353;fill-opacity:1;fill-rule:nonzero;stroke:none;stroke-width:0.26199999;stroke-miterlimit:4;stroke-dasharray:none;stroke-dashoffset:74.26771545;stroke-opacity:1"
       id="path873"
       d="m 26.534559,26.733931 c 2.260378,-1.436656 4.54219,-2.838185 6.8325,-4.227045 1.966383,-1.30837 3.970615,-2.53698 6.092338,-3.57748 1.143156,-0.606936 2.513131,-0.880695 3.561913,-1.652241 1.010031,-1.126468 2.214065,-2.080413 3.326379,-3.107557 0.865947,-0.722717 0.495445,-0.38452 1.129173,-0.994887 2.720385,-2.56912 6.353667,1.278085 3.633282,3.847205 v 0 c -0.829556,0.773888 -0.430818,0.428303 -1.186318,1.048062 -1.328777,1.211733 -2.664436,2.415154 -3.99357,3.627558 -1.303123,0.823225 -2.738014,1.387561 -4.154038,1.989388 -1.983803,0.957209 -3.825848,2.140489 -5.666644,3.345473 -2.329964,1.410997 -4.646608,2.841953 -6.949612,4.295976 -3.24877,1.856441 -5.874172,-2.738014 -2.625403,-4.594452 z"
       inkscape:connector-curvature="0" />
    <path
       style="opacity:0.87099998;fill:#6c5353;fill-opacity:1;fill-rule:nonzero;stroke:none;stroke-width:0.26199999;stroke-miterlimit:4;stroke-dasharray:none;stroke-dashoffset:74.26771545;stroke-opacity:1"
       id="path875"
       d="m 29.159962,30.48114 c 1.83846,1.298411 3.692416,2.564765 5.598183,3.763343 1.279853,0.904955 2.53102,1.855777 3.660045,2.944321 1.35614,1.331034 2.197068,3.05998 3.36029,4.537527 1.055492,1.498153 1.984965,3.067521 3.257992,4.397968 1.204352,1.402593 2.620595,2.594009 3.91945,3.90222 0.880743,1.068287 1.903003,1.797108 3.059938,2.496571 0.468114,0.308968 0.990526,0.426519 1.53166,0.525106 3.663003,0.76373 2.582921,5.943996 -1.080079,5.180266 v 0 C 51.345081,57.9805 50.245044,57.66944 49.264643,57.043327 47.740702,56.107065 46.36503,55.086085 45.177307,53.731083 43.869932,52.371421 42.379172,51.18664 41.165338,49.732075 c -1.35771,-1.481656 -2.487049,-3.109643 -3.586131,-4.785831 -0.994664,-1.318567 -1.795719,-2.777662 -2.899603,-4.012483 -0.791496,-0.867108 -1.839926,-1.477092 -2.744669,-2.213652 -1.836877,-1.161614 -3.6508,-2.35421 -5.400376,-3.644517 -3.248769,-1.856438 -0.623367,-6.450893 2.625403,-4.594452 z"
       inkscape:connector-curvature="0" />
    <path
       style="opacity:0.87099998;fill:#6c5353;fill-opacity:1;fill-rule:nonzero;stroke:none;stroke-width:0.26199999;stroke-miterlimit:4;stroke-dasharray:none;stroke-dashoffset:74.26771545;stroke-opacity:1"
       id="path877"
       d="m 56.392693,14.79545 c 0.147307,2.517368 0.635492,4.987863 1.020887,7.474424 0.130069,1.409173 0.57005,2.758334 1.029634,4.087767 0.484751,1.719868 1.147818,3.379057 1.644134,5.094147 0.458692,1.873893 0.972198,3.72437 1.267246,5.633667 0.297592,1.242158 0.745931,2.433849 1.114218,3.654576 0.39533,1.494255 0.792237,2.986613 1.2694,4.457223 0.07958,0.273561 0.15916,0.547119 0.238738,0.820679 1.039421,3.594505 -4.043976,5.064472 -5.083397,1.469965 v 0 c -0.06295,-0.219337 -0.125904,-0.438674 -0.188854,-0.658011 -0.489665,-1.510168 -0.898274,-3.042952 -1.306452,-4.576218 -0.428577,-1.457004 -0.98865,-2.875176 -1.275268,-4.37326 -0.251293,-1.691447 -0.736224,-3.3219 -1.126246,-4.983843 -0.448059,-1.624698 -1.119947,-3.179371 -1.554779,-4.810008 -0.562597,-1.627447 -1.074674,-3.287532 -1.257784,-5.007365 -0.395743,-2.561152 -0.893977,-5.107288 -1.050777,-7.699376 -0.41321,-3.718887 4.846092,-4.303254 5.2593,-0.584367 z"
       inkscape:connector-curvature="0" />
    <path
       style="opacity:0.87099998;fill:#6c5353;fill-opacity:1;fill-rule:nonzero;stroke:none;stroke-width:2.82924628;stroke-miterlimit:4;stroke-dasharray:none;stroke-dashoffset:74.26771545;stroke-opacity:1"
       d="m 179.5098,180.66254 c -9.41063,-9.82143 -20.66655,-23.24995 -25.01315,-29.84116 -4.3466,-6.59121 -14.87651,-16.78692 -23.3998,-22.65713 -8.52328,-5.87021 -14.50687,-11.51367 -13.29686,-12.54103 6.0175,-5.10915 40.18843,-25.115053 46.08728,-26.982516 3.70943,-1.174333 11.67133,-6.586321 17.69311,-12.026639 l 10.94869,-9.891488 1.86095,10.898554 c 1.65418,9.687609 11.60547,47.646479 23.00729,87.760499 l 3.98065,14.00479 -10.68898,9.4477 c -5.87894,5.19623 -11.44947,9.50122 -12.37896,9.56663 -0.92949,0.0654 -9.38959,-7.91678 -18.80022,-17.73821 z"
       id="path879"
       inkscape:connector-curvature="0"
       transform="scale(0.26458333)" />
    <path
       style="opacity:0.87099998;fill:#6c5353;fill-opacity:1;fill-rule:nonzero;stroke:none;stroke-width:2.82924628;stroke-miterlimit:4;stroke-dasharray:none;stroke-dashoffset:74.26771545;stroke-opacity:1"
       d="m 655.42251,691.98086 -9.70822,-6.53886 -1.42858,-85.12811 -1.42857,-85.12812 -9.3308,-8.33306 -9.33077,-8.33302 h -72.81208 c -40.04663,0 -72.81206,-1.0616 -72.81206,-2.35912 0,-1.29748 3.21428,-5.37874 7.14286,-9.06946 3.92857,-3.69071 7.14285,-8.80054 7.14285,-11.35517 0,-5.60714 -5.44718,-11.50197 -10.62851,-11.50197 -2.07425,0 -13.65403,-9.72364 -25.73283,-21.6081 -12.07881,-11.88445 -35.51741,-30.71291 -52.08578,-41.84102 -42.88126,-28.8011 -58.36458,-42.87434 -81.07753,-73.69374 -30.78275,-41.76935 -52.26818,-67.72509 -78.26992,-94.55493 l -23.79705,-24.55493 11.58682,-8.02966 c 10.67387,-7.397 12.17906,-7.71347 19.10348,-4.0165 8.44505,4.50883 49.85155,41.12025 95.05985,84.05144 16.56995,15.73534 41.05576,37.76325 54.4129,48.95092 13.35714,11.18766 28.14286,24.46907 32.85714,29.51422 4.71429,5.04516 17.57143,15.42098 28.57143,23.05737 22.193,15.40677 39.43249,34.25071 42.46643,46.4187 1.09426,4.38872 3.83534,8.68777 6.09126,9.55346 2.25594,0.86568 17.93306,-5.21453 34.83806,-13.51157 37.546,-18.42776 54.66928,-21.07458 71.43197,-11.04155 23.50783,14.07023 23.74371,14.55742 23.74371,49.03856 0,47.10945 3.92552,53.12079 48.25386,73.89376 13.39514,6.27717 26.8386,13.62203 29.87431,16.32189 3.03572,2.69985 10.57055,15.19454 16.74403,27.76597 10.02469,20.41383 11.11643,24.71634 10.2132,40.2498 -0.83997,14.44514 -3.0986,20.84717 -13.32786,37.77717 -6.77408,11.21148 -17.33731,24.92051 -23.47382,30.46448 -10.08886,9.11469 -12.75775,10.07998 -27.86943,10.07998 -12.6818,0 -19.05335,-1.57692 -26.42035,-6.53883 z"
       id="path881"
       inkscape:connector-curvature="0"
       transform="scale(0.26458333)" />
    <path
       style="opacity:0.87099998;fill:#b3b3b3;fill-opacity:1;fill-rule:nonzero;stroke:none;stroke-width:2.82924628;stroke-miterlimit:4;stroke-dasharray:none;stroke-dashoffset:74.26771545;stroke-opacity:1"
       d="m 452.70844,496.37683 c 4.96861,-8.53863 12.78496,-16.62189 18.00585,-18.6207 2.75,-1.05284 5,-3.97259 5,-6.48835 0,-3.10927 2.05871,-4.28172 6.42857,-3.6611 10.01241,1.42199 9.10302,10.98805 -2.19178,23.05586 -7.91287,8.45442 -12.15029,10.71429 -20.09006,10.71429 -8.78654,0 -9.69325,-0.63383 -7.15258,-5 z"
       id="path883"
       inkscape:connector-curvature="0"
       transform="scale(0.26458333)" />
    <path
       style="opacity:0.87099998;fill:#b3b3b3;fill-opacity:1;fill-rule:nonzero;stroke:none;stroke-width:2.82924628;stroke-miterlimit:4;stroke-dasharray:none;stroke-dashoffset:74.26771545;stroke-opacity:1"
       d=""
       id="path885"
       inkscape:connector-curvature="0"
       transform="scale(0.26458333)" />
    <path
       style="opacity:0.87099998;fill:#b3b3b3;fill-opacity:1;fill-rule:nonzero;stroke:none;stroke-width:2.82924628;stroke-miterlimit:4;stroke-dasharray:none;stroke-dashoffset:74.26771545;stroke-opacity:1"
       d="m 635.21934,702.09111 c -13.1306,-15.49247 -28.07648,-56.40276 -28.07648,-76.85175 0,-14.49823 -2.56495,-17.91849 -20.06093,-26.75043 -18.03175,-9.1024 -19.93187,-9.33634 -69.93907,-8.61073 -38.9074,0.56455 -46.54233,-1.42771 -56.53575,-14.75248 -17.92481,-23.90011 -23.05874,-44.62259 -16.0419,-64.75111 2.77497,-7.96028 4.3867,-8.99778 13.97772,-8.99778 h 10.84108 l -5.40629,10.60412 c -7.09449,13.91542 -6.82049,21.08281 1.42775,37.348 11.97972,23.62353 11.68149,23.51652 63.36163,22.73565 l 45.51861,-0.68777 17.47579,9.13433 c 23.7195,12.39783 31.33535,22.05649 33.75296,42.8065 2.28294,19.59413 8.40303,42.53138 14.43353,54.09482 4.59304,8.80714 5.94568,29.67863 1.9234,29.67863 -1.32787,0 -4.3213,-2.25 -6.65205,-5 z"
       id="path887"
       inkscape:connector-curvature="0"
       transform="scale(0.26458333)" />
    <path
       style="opacity:0.87099998;fill:#e6e6e6;fill-opacity:1;fill-rule:nonzero;stroke:none;stroke-width:0.26199999;stroke-miterlimit:4;stroke-dasharray:none;stroke-dashoffset:74.26771545;stroke-opacity:1"
       id="path891"
       d="m 94.193473,77.004399 c -1.987233,1.42626 -3.900353,2.945825 -5.74725,4.548679 -1.388277,1.327221 -2.967411,2.444142 -4.34911,3.775742 -0.185354,0.165264 -0.37071,0.330528 -0.556067,0.495795 -0.399105,0.355592 -0.901991,-0.208828 -0.502883,-0.564423 v 0 c 0.178443,-0.158872 0.356889,-0.317743 0.535332,-0.476615 1.39565,-1.335939 2.974988,-2.470295 4.377279,-3.801457 1.85084,-1.605854 3.766138,-3.131068 5.758749,-4.558461 0.410644,-0.342204 0.894593,0.238535 0.48395,0.58074 z"
       inkscape:connector-curvature="0" />
    <path
       style="opacity:0.87099998;fill:#e6e6e6;fill-opacity:1;fill-rule:nonzero;stroke:none;stroke-width:0.26199999;stroke-miterlimit:4;stroke-dasharray:none;stroke-dashoffset:74.26771545;stroke-opacity:1"
       id="path893"
       d="m 85.624206,67.890246 c -2.12811,1.203325 -4.196501,2.503631 -6.26197,3.810334 -1.184011,0.751035 -2.2513,1.661006 -3.373991,2.496245 -0.42895,0.318961 -0.880028,-0.287663 -0.45108,-0.606623 v 0 c 1.138311,-0.845992 2.21947,-1.769218 3.420933,-2.528477 2.086898,-1.320086 4.176543,-2.634189 6.328037,-3.847621 0.478107,-0.239054 0.816178,0.437091 0.338071,0.676142 z"
       inkscape:connector-curvature="0" />
    <path
       style="opacity:0.87099998;fill:#e6e6e6;fill-opacity:1;fill-rule:nonzero;stroke:none;stroke-width:0.26199999;stroke-miterlimit:4;stroke-dasharray:none;stroke-dashoffset:74.26771545;stroke-opacity:1"
       id="path895"
       d="m 102.55395,84.700387 c -1.75536,2.05037 -3.39465,4.192214 -5.073588,6.303515 -0.871725,1.157452 -1.555977,2.434122 -2.391169,3.6185 -0.308253,0.436705 -0.925849,7.94e-4 -0.617598,-0.435936 v 0 c 0.844547,-1.195289 1.530463,-2.488432 2.417191,-3.653202 1.685581,-2.117749 3.329604,-4.267698 5.091204,-6.324846 0.34787,-0.405852 0.92184,0.08612 0.57396,0.491969 z"
       inkscape:connector-curvature="0" />
    <path
       style="opacity:0.87099998;fill:#e6e6e6;fill-opacity:1;fill-rule:nonzero;stroke:none;stroke-width:0.26199999;stroke-miterlimit:4;stroke-dasharray:none;stroke-dashoffset:74.26771545;stroke-opacity:1"
       id="path897"
       d="m 114.74301,94.433333 c -1.72979,1.971053 -3.218,4.129924 -4.59349,6.357647 -1.52006,2.16699 -3.08035,4.2958 -4.53282,6.50923 -0.29327,0.4469 -0.92529,0.0321 -0.63202,-0.41475 v 0 c 1.44875,-2.20759 3.00273,-4.33245 4.52167,-6.49172 1.39483,-2.257656 2.90307,-4.446056 4.65592,-6.444356 0.3422,-0.410644 0.92294,0.07331 0.58074,0.483949 z"
       inkscape:connector-curvature="0" />
    <path
       style="opacity:0.87099998;fill:#e6e6e6;fill-opacity:1;fill-rule:nonzero;stroke:none;stroke-width:0.26199999;stroke-miterlimit:4;stroke-dasharray:none;stroke-dashoffset:74.26771545;stroke-opacity:1"
       id="path899"
       d="m 128.48827,100.58886 c -1.26745,2.28451 -2.25786,4.69749 -3.6029,6.93951 -1.08577,1.97109 -2.454,3.77065 -3.88561,5.50059 -0.74869,0.95728 -0.37669,0.4823 -1.11597,1.42498 -0.32986,0.42063 -0.92471,-0.0459 -0.59485,-0.46649 v 0 c 0.74309,-0.94755 0.36684,-0.4673 1.12869,-1.44077 1.40927,-1.69903 2.75226,-3.47004 3.81967,-5.40749 1.33695,-2.22407 2.31324,-4.62287 3.57483,-6.8884 0.23906,-0.478107 0.9152,-0.14003 0.67614,0.33807 z"
       inkscape:connector-curvature="0" />
    <path
       style="opacity:0.87099998;fill:#e6e6e6;fill-opacity:1;fill-rule:nonzero;stroke:none;stroke-width:0.26199999;stroke-miterlimit:4;stroke-dasharray:none;stroke-dashoffset:74.26771545;stroke-opacity:1"
       id="path901"
       d="m 71.331393,57.225832 c -1.887889,0.821814 -3.571208,2.010806 -5.295675,3.117066 -0.449929,0.288608 -0.858083,-0.347689 -0.408154,-0.636299 v 0 c 1.759649,-1.12863 3.478609,-2.33944 5.406046,-3.175598 0.491318,-0.210563 0.789101,0.484265 0.297783,0.694831 z"
       inkscape:connector-curvature="0" />
    <path
       style="opacity:0.87099998;fill:#e6e6e6;fill-opacity:1;fill-rule:nonzero;stroke:none;stroke-width:0.26199999;stroke-miterlimit:4;stroke-dasharray:none;stroke-dashoffset:74.26771545;stroke-opacity:1"
       id="path903"
       d="m 134.49345,126.60021 c 0.57591,1.05969 1.33324,1.9979 2.07648,2.94092 0.33074,0.41993 -0.26314,0.88767 -0.59388,0.46774 v 0 c -0.76565,-0.9728 -1.54459,-1.94151 -2.13896,-3.03361 -0.2652,-0.46411 0.39115,-0.83916 0.65636,-0.37505 z"
       inkscape:connector-curvature="0" />
    <path
       style="opacity:0.87099998;fill:#e6e6e6;fill-opacity:1;fill-rule:nonzero;stroke:none;stroke-width:0.26199999;stroke-miterlimit:4;stroke-dasharray:none;stroke-dashoffset:74.26771545;stroke-opacity:1"
       id="path905"
       d="m 172.97583,162.16861 c 0.86117,2.05785 2.01866,3.95079 3.21928,5.82301 0.71686,1.40862 1.75027,2.57777 2.74836,3.78123 0.87479,1.15314 2.03955,2.0343 3.19783,2.88328 1.1967,0.72965 2.42341,1.39439 3.53422,2.25356 1.05684,0.96611 2.23521,1.77348 3.42383,2.56447 0.445,0.29615 0.0262,0.92548 -0.41881,0.62934 v 0 c -1.2037,-0.80106 -2.39746,-1.61878 -3.46824,-2.59641 -1.10335,-0.85782 -2.33316,-1.50613 -3.51847,-2.24168 -1.20661,-0.88781 -2.41957,-1.80772 -3.33257,-3.01039 -1.01567,-1.2282 -2.07009,-2.42076 -2.80254,-3.8554 -1.22262,-1.90744 -2.39979,-3.83738 -3.27772,-5.93323 -0.21056,-0.49132 0.48427,-0.78911 0.69483,-0.29778 z"
       inkscape:connector-curvature="0" />
    <path
       style="opacity:0.87099998;fill:#e6e6e6;fill-opacity:1;fill-rule:nonzero;stroke:none;stroke-width:0.26199999;stroke-miterlimit:4;stroke-dasharray:none;stroke-dashoffset:74.26771545;stroke-opacity:1"
       id="path907"
       d="m 146.5175,115.29956 c 1.08754,1.84047 1.80451,3.85343 2.66443,5.80121 0.8858,1.8818 1.9776,3.65615 3.34908,5.2203 0.88149,0.97562 1.94744,1.75524 2.91645,2.63764 0.39481,0.36036 -0.11481,0.9187 -0.50962,0.55835 v 0 c -0.98755,-0.90364 -2.08095,-1.69556 -2.9757,-2.69815 -1.41883,-1.62428 -2.55668,-3.45967 -3.47179,-5.41288 -0.86076,-1.95055 -1.5806,-3.96467 -2.66768,-5.80869 -0.21057,-0.49132 0.48426,-0.7891 0.69483,-0.29778 z"
       inkscape:connector-curvature="0" />
    <path
       style="opacity:0.87099998;fill:#e6e6e6;fill-opacity:1;fill-rule:nonzero;stroke:none;stroke-width:0.26199999;stroke-miterlimit:4;stroke-dasharray:none;stroke-dashoffset:74.26771545;stroke-opacity:1"
       id="path909"
       d="m 173.17764,144.33114 c 2.82069,1.44386 5.58816,2.9803 8.36986,4.498 2.10264,1.06358 3.96293,2.49666 5.78576,3.97114 1.41071,0.98015 2.5736,2.23304 3.54209,3.64165 1.05328,1.60882 2.11188,3.21521 3.1272,4.84829 0.46515,0.67433 0.99914,1.29364 1.49469,1.94527 0.32343,0.42559 -0.27845,0.88298 -0.60188,0.45739 v 0 c -0.50935,-0.67074 -1.06116,-1.30634 -1.53491,-2.0037 -1.00847,-1.6241 -2.06245,-3.22017 -3.10879,-4.82008 -0.92226,-1.3522 -2.04396,-2.54373 -3.39407,-3.48129 -1.78624,-1.4474 -3.61027,-2.85224 -5.67219,-3.89508 -2.78592,-1.52035 -5.558,-3.05852 -8.38281,-4.50524 -0.46411,-0.2652 -0.0891,-0.92155 0.37505,-0.65635 z"
       inkscape:connector-curvature="0" />
    <path
       style="opacity:0.87099998;fill:#e6e6e6;fill-opacity:1;fill-rule:nonzero;stroke:none;stroke-width:0.26199999;stroke-miterlimit:4;stroke-dasharray:none;stroke-dashoffset:74.26771545;stroke-opacity:1"
       id="path911"
       d="m 191.31213,174.7373 c -1.16705,-2.41167 -2.73195,-4.58583 -4.14218,-6.85102 -0.99493,-1.59443 -2.25862,-2.96008 -3.68368,-4.17153 -1.45138,-1.06002 -2.94206,-2.04229 -4.56194,-2.82372 -1.60722,-0.59312 -3.13447,-1.34042 -4.5375,-2.32234 -0.43762,-0.30696 -0.004,-0.92584 0.4341,-0.61889 v 0 c 1.36789,0.96176 2.86528,1.67794 4.43242,2.26064 1.6761,0.81196 3.22381,1.82477 4.72278,2.92855 1.48358,1.26321 2.79962,2.68715 3.83576,4.34806 1.42035,2.28625 3.00147,4.47813 4.17638,6.91218 0.23906,0.47811 -0.43709,0.81618 -0.67614,0.33807 z"
       inkscape:connector-curvature="0" />
    <path
       style="opacity:0.87099998;fill:#e6e6e6;fill-opacity:1;fill-rule:nonzero;stroke:none;stroke-width:0.26199999;stroke-miterlimit:4;stroke-dasharray:none;stroke-dashoffset:74.26771545;stroke-opacity:1"
       id="path913"
       d="m 141.98828,120.69782 c 0.78862,1.90158 1.61093,3.78953 2.54882,5.6226 0.24324,0.47598 -0.42991,0.81998 -0.67315,0.34399 v 0 c -0.94909,-1.85946 -1.78616,-3.77212 -2.58349,-5.70115 -0.18769,-0.50051 0.52013,-0.76594 0.70782,-0.26544 z"
       inkscape:connector-curvature="0" />
  </g>
</svg>
