<?xml version="1.0" encoding="UTF-8" standalone="no"?>
<!-- Created with Inkscape (http://www.inkscape.org/) -->

<svg
   xmlns:dc="http://purl.org/dc/elements/1.1/"
   xmlns:cc="http://creativecommons.org/ns#"
   xmlns:rdf="http://www.w3.org/1999/02/22-rdf-syntax-ns#"
   xmlns:svg="http://www.w3.org/2000/svg"
   xmlns="http://www.w3.org/2000/svg"
   xmlns:sodipodi="http://sodipodi.sourceforge.net/DTD/sodipodi-0.dtd"
   xmlns:inkscape="http://www.inkscape.org/namespaces/inkscape"
   width="210mm"
   height="297mm"
   viewBox="0 0 210 297"
   version="1.1"
   id="svg8"
   inkscape:version="0.92.5 (2060ec1f9f, 2020-04-08)"
   sodipodi:docname="logo.svg">
  <defs
     id="defs2" />
  <sodipodi:namedview
     id="base"
     pagecolor="#ffffff"
     bordercolor="#666666"
     borderopacity="1.0"
     inkscape:pageopacity="0.0"
     inkscape:pageshadow="2"
     inkscape:zoom="1"
     inkscape:cx="-64.582792"
     inkscape:cy="674.65789"
     inkscape:document-units="px"
     inkscape:current-layer="layer1"
     showgrid="false"
     showborder="false"
     inkscape:window-width="1920"
     inkscape:window-height="1017"
     inkscape:window-x="1358"
     inkscape:window-y="-8"
     inkscape:window-maximized="1" />
  <metadata
     id="metadata5">
    <rdf:RDF>
      <cc:Work
         rdf:about="">
        <dc:format>image/svg+xml</dc:format>
        <dc:type
           rdf:resource="http://purl.org/dc/dcmitype/StillImage" />
        <dc:title></dc:title>
      </cc:Work>
    </rdf:RDF>
  </metadata>
  <g
     inkscape:label="Layer 1"
     inkscape:groupmode="layer"
     id="layer1">
    <path
       style="opacity:0.50400002;fill:#0000ff;fill-opacity:1;fill-rule:nonzero;stroke:none;stroke-width:0.22084747;stroke-miterlimit:4;stroke-dasharray:none;stroke-dashoffset:74.26771545;stroke-opacity:1"
       d="m -79.377613,85.588291 h 49.166272 c 3.369875,0 6.082807,2.712932 6.082807,6.082807 V 103.5922 c 0,3.36986 -2.712932,6.0828 -6.082807,6.0828 h -49.166272 c -3.369875,0 -6.082807,-2.71294 -6.082807,-6.0828 V 91.671098 c 0,-3.369875 2.712932,-6.082807 6.082807,-6.082807 z"
       id="rect815"
       inkscape:connector-curvature="0" />
    <path
       style="opacity:0.50400002;fill:#0000ff;fill-opacity:1;fill-rule:nonzero;stroke:none;stroke-width:0.99023622;stroke-miterlimit:4;stroke-dasharray:none;stroke-dashoffset:74.26771545;stroke-opacity:1"
       d="m -305.08279,413.53882 c -7.40897,-1.83358 -12.13692,-5.84419 -15.41597,-13.07703 -1.89086,-4.1708 -2.041,-6.47517 -2.0523,-31.5 -0.012,-26.46564 0.0356,-27.10272 2.40442,-32.1904 2.92735,-6.28736 8.60611,-10.72401 15.66371,-12.2376 6.93581,-1.48746 187.86447,-1.48746 194.80028,0 7.0576,1.51359 12.736358,5.95024 15.663708,12.2376 2.36878,5.08768 2.41637,5.72476 2.40442,32.1904 -0.0113,25.02483 -0.16144,27.3292 -2.0523,31.5 -2.5379,5.59801 -5.27635,8.58133 -10.415968,11.34732 l -4,2.15268 -97,0.15974 c -53.35,0.0879 -98.35,-0.17437 -100,-0.58271 z"
       id="path818"
       inkscape:connector-curvature="0"
       transform="scale(0.26458333)" />
    <path
       style="opacity:0.87099998;fill:#ffffff;fill-opacity:1;fill-rule:nonzero;stroke:none;stroke-width:0.26199999;stroke-miterlimit:4;stroke-dasharray:none;stroke-dashoffset:74.26771545;stroke-opacity:1"
       id="path1023"
       d="m -77.126041,98.286521 c 0,0.881092 0,1.762179 0,2.643269 -0.03793,0.66903 0.01982,1.32458 0.107278,1.98592 0.09674,0.69534 0.128495,1.3972 0.148013,2.09824 0.05657,2.0572 -2.852753,2.13719 -2.909315,0.08 v 0 c -0.01627,-0.6003 -0.04093,-1.20156 -0.124035,-1.79698 -0.103886,-0.78689 -0.168314,-1.57236 -0.132357,-2.36718 0,-0.88109 0,-1.762177 0,-2.643269 0,-2.057974 2.910416,-2.057974 2.910416,0 z"
       inkscape:connector-curvature="0" />
    <path
       style="opacity:0.87099998;fill:#ffffff;fill-opacity:1;fill-rule:nonzero;stroke:none;stroke-width:0.26199999;stroke-miterlimit:4;stroke-dasharray:none;stroke-dashoffset:74.26771545;stroke-opacity:1"
       id="path1025"
       d="m -72.363541,99.080271 c 0,0.846569 0,1.693139 0,2.539699 0,0.70299 0,1.40597 0,2.10895 -0.04205,0.4944 0.07114,0.97033 0.143584,1.45578 0.04448,0.30069 0.06644,0.60376 0.08779,0.90671 0.141489,2.0531 -2.762044,2.2532 -2.903529,0.20009 v 0 c -0.01519,-0.22691 -0.03054,-0.45395 -0.0631,-0.67922 -0.09229,-0.62491 -0.217686,-1.24764 -0.175164,-1.88336 0,-0.70298 0,-1.40596 0,-2.10895 0,-0.84656 0,-1.69313 0,-2.539699 0,-2.057974 2.910416,-2.057974 2.910416,0 z"
       inkscape:connector-curvature="0" />
    <path
       style="opacity:0.87099998;fill:#ffffff;fill-opacity:1;fill-rule:nonzero;stroke:none;stroke-width:0.26199999;stroke-miterlimit:4;stroke-dasharray:none;stroke-dashoffset:74.26771545;stroke-opacity:1"
       id="path1027"
       d="m -67.379344,99.525351 c -0.0997,0.790239 -0.158041,1.584429 -0.193389,2.379869 -0.02503,0.6302 -0.02863,1.26093 -0.03007,1.89154 -2.65e-4,0.3977 2.48e-4,0.7954 5.29e-4,1.1931 0.0021,2.05798 -2.908329,2.06093 -2.910417,0.003 v 0 c -5.29e-4,-0.40092 -0.0011,-0.80185 -5.29e-4,-1.20278 0.0016,-0.6718 0.0058,-1.34374 0.03298,-2.01509 0.03939,-0.87254 0.103429,-1.74374 0.212945,-2.610578 0.255262,-2.042084 3.143202,-1.681091 2.887943,0.360992 z"
       inkscape:connector-curvature="0" />
    <path
       style="opacity:0.87099998;fill:#ffffff;fill-opacity:1;fill-rule:nonzero;stroke:none;stroke-width:0.26199999;stroke-miterlimit:4;stroke-dasharray:none;stroke-dashoffset:74.26771545;stroke-opacity:1"
       id="path1033"
       d="m -62.309374,100.93235 c 0,0.85976 0,1.71951 0,2.57926 -0.0026,0.62245 0.121438,1.23769 0.18438,1.85657 0.0092,0.11316 0.01839,0.22632 0.02758,0.33948 0.164809,2.05136 -2.736259,2.28443 -2.901068,0.23307 v 0 c -0.0074,-0.0934 -0.01482,-0.18685 -0.02222,-0.28027 -0.07159,-0.71581 -0.215419,-1.42716 -0.199094,-2.14885 0,-0.85975 0,-1.7195 0,-2.57926 0,-2.05797 2.910417,-2.05797 2.910417,0 z"
       inkscape:connector-curvature="0" />
    <path
       style="opacity:0.87099998;fill:#ffffff;fill-opacity:1;fill-rule:nonzero;stroke:none;stroke-width:0.26199999;stroke-miterlimit:4;stroke-dasharray:none;stroke-dashoffset:74.26771545;stroke-opacity:1"
       id="path1035"
       d="m -56.72448,99.854574 c 0.179395,0.929506 0.508534,1.819416 0.745984,2.734666 0.14359,0.55426 0.267743,1.12164 0.44485,1.66663 0.195971,0.5434 0.385249,1.08207 0.504393,1.64949 0.05631,0.36984 0.01484,0.23126 0.08116,0.42629 0.50133,1.99598 -2.321412,2.70496 -2.822742,0.70898 v 0 c -0.100523,-0.43573 -0.0696,-0.24826 -0.111215,-0.55903 -0.08953,-0.48125 -0.296309,-0.92027 -0.438465,-1.38676 -0.171153,-0.58892 -0.332615,-1.18275 -0.476162,-1.77872 -0.242631,-0.94753 -0.591164,-1.86637 -0.768909,-2.83019 -0.446439,-2.008967 2.394673,-2.640324 2.84111,-0.631356 z"
       inkscape:connector-curvature="0" />
    <path
       style="opacity:0.87099998;fill:#ffffff;fill-opacity:1;fill-rule:nonzero;stroke:none;stroke-width:0.26199999;stroke-miterlimit:4;stroke-dasharray:none;stroke-dashoffset:74.26771545;stroke-opacity:1"
       id="path1037"
       d="m -47.492708,101.99069 c -0.03106,1.09751 -0.283273,2.16393 -0.585536,3.21374 -0.28317,0.75955 -0.543017,1.51871 -0.666766,2.32096 -0.03902,0.43283 -0.137133,0.85738 -0.215585,1.28413 -0.372845,2.02392 -3.2351,1.49663 -2.862252,-0.52729 v 0 c 0.07462,-0.40433 0.169442,-0.80579 0.203925,-1.21636 0.150564,-0.91944 0.405038,-1.80783 0.74639,-2.67537 0.231973,-0.78428 0.427339,-1.57977 0.469408,-2.39981 0,-2.057976 2.910416,-2.057976 2.910416,0 z"
       inkscape:connector-curvature="0" />
    <path
       style="opacity:0.87099998;fill:#ffffff;fill-opacity:1;fill-rule:nonzero;stroke:none;stroke-width:0.26199999;stroke-miterlimit:4;stroke-dasharray:none;stroke-dashoffset:74.26771545;stroke-opacity:1"
       id="path1039"
       d="m -41.916045,101.54561 c 0.183369,0.8761 0.428852,1.73901 0.652229,2.60596 0.176755,0.82686 0.487265,1.61149 0.683485,2.43377 0.05327,0.36721 0.129315,0.71999 0.30184,1.04843 0.86815,1.8659 -1.770629,3.09364 -2.63878,1.22775 v 0 c -0.229973,-0.51763 -0.426312,-1.04376 -0.4963,-1.61039 -0.184639,-0.80333 -0.51185,-1.56365 -0.668904,-2.37452 -0.253269,-0.98644 -0.541022,-1.96718 -0.721513,-2.97001 -0.25526,-2.042083 2.632681,-2.403075 2.887943,-0.36099 z"
       inkscape:connector-curvature="0" />
    <path
       style="opacity:0.87099998;fill:#ffffff;fill-opacity:1;fill-rule:nonzero;stroke:none;stroke-width:0.26199999;stroke-miterlimit:4;stroke-dasharray:none;stroke-dashoffset:74.26771545;stroke-opacity:1"
       id="path1041"
       d="m -34.039508,100.59554 c -0.09893,0.9033 -0.155869,1.81053 -0.195678,2.71815 -0.02482,0.60785 -0.02868,1.21623 -0.03012,1.82449 -1.88e-4,0.60579 7.93e-4,1.21158 0.0011,1.81737 6.3e-5,0.1134 1.27e-4,0.2268 1.9e-4,0.34021 0.0011,2.05797 -2.909265,2.0596 -2.910416,0.002 v 0 c -6.4e-5,-0.11326 -1.27e-4,-0.22653 -1.91e-4,-0.33979 -5.29e-4,-0.60879 -0.0013,-1.21757 -0.0011,-1.82635 0.0016,-0.64867 0.0061,-1.29746 0.03293,-1.94568 0.04302,-0.97216 0.104317,-1.9439 0.210656,-2.91142 0.227267,-2.04539 3.119882,-1.72399 2.892615,0.3214 z"
       inkscape:connector-curvature="0" />
    <path
       style="opacity:0.87099998;fill:#ffffff;fill-opacity:1;fill-rule:nonzero;stroke:none;stroke-width:0.26199999;stroke-miterlimit:4;stroke-dasharray:none;stroke-dashoffset:74.26771545;stroke-opacity:1"
       id="path1043"
       d="m -27.913541,100.17025 c 0,1.15263 0,2.30525 0,3.45787 -0.03186,0.69617 7.93e-4,1.378 0.103777,2.06489 0.04841,0.34533 0.01487,0.20024 0.08124,0.43931 0.469471,2.00371 -2.364206,2.66764 -2.833674,0.66393 v 0 c -0.107691,-0.49185 -0.06928,-0.26711 -0.125902,-0.67233 -0.123828,-0.82905 -0.169432,-1.65707 -0.135856,-2.4958 0,-1.15262 0,-2.30524 0,-3.45787 0,-2.05797 2.910417,-2.05797 2.910417,0 z"
       inkscape:connector-curvature="0" />
    <path
       style="opacity:0.87099998;fill:#000000;fill-opacity:1;fill-rule:nonzero;stroke:none;stroke-width:0.26199999;stroke-miterlimit:4;stroke-dasharray:none;stroke-dashoffset:74.26771545;stroke-opacity:1"
       id="path1047"
       d="m -75.273957,97.228188 c 0.0711,0.796872 0.115726,1.594731 0.274026,2.379771 0.08276,0.409051 0.04347,0.204629 0.117919,0.613271 0.233958,1.28855 -1.588333,1.61942 -1.822291,0.33086 v 0 c -0.0676,-0.37375 -0.03062,-0.17992 -0.111826,-0.581311 -0.179327,-0.904705 -0.242956,-1.823595 -0.309912,-2.742591 0,-1.309619 1.852084,-1.309619 1.852084,0 z"
       inkscape:connector-curvature="0" />
    <path
       style="opacity:0.87099998;fill:#000000;fill-opacity:1;fill-rule:nonzero;stroke:none;stroke-width:0.26199999;stroke-miterlimit:4;stroke-dasharray:none;stroke-dashoffset:74.26771545;stroke-opacity:1"
       id="path1049"
       d="m -70.48696,97.113327 c 0.09626,0.812474 0.232651,1.620811 0.445683,2.410888 0.09247,0.316395 0.155919,0.639295 0.215331,0.963065 0.232947,1.28874 -1.589601,1.61817 -1.822548,0.32943 v 0 c -0.04841,-0.27332 -0.102814,-0.54533 -0.181448,-0.81198 -0.233725,-0.872831 -0.388745,-1.764426 -0.4948,-2.661681 -0.162439,-1.299507 1.675344,-1.529228 1.837782,-0.229722 z"
       inkscape:connector-curvature="0" />
    <path
       style="opacity:0.87099998;fill:#000000;fill-opacity:1;fill-rule:nonzero;stroke:none;stroke-width:0.26199999;stroke-miterlimit:4;stroke-dasharray:none;stroke-dashoffset:74.26771545;stroke-opacity:1"
       id="path1051"
       d="m -64.955208,98.551104 c 0,0.87054 0,1.741086 0,2.611626 0,0.43255 0,0.8651 0,1.29765 0,1.30963 -1.852083,1.30963 -1.852083,0 v 0 c 0,-0.43255 0,-0.8651 0,-1.29765 0,-0.87054 0,-1.741086 0,-2.611626 0,-1.309618 1.852083,-1.309618 1.852083,0 z"
       inkscape:connector-curvature="0" />
    <path
       style="opacity:0.87099998;fill:#000000;fill-opacity:1;fill-rule:nonzero;stroke:none;stroke-width:0.26199999;stroke-miterlimit:4;stroke-dasharray:none;stroke-dashoffset:74.26771545;stroke-opacity:1"
       id="path1053"
       d="m -53.542141,98.755117 c 0.364987,0.872627 0.63038,1.780833 0.916842,2.680893 0.104217,0.3343 0.175419,0.67617 0.273508,1.01208 0.362185,1.25854 -1.417661,1.77074 -1.779847,0.5122 v 0 c -0.09111,-0.32014 -0.166113,-0.643 -0.258561,-0.96273 -0.276826,-0.87029 -0.532387,-1.74871 -0.886101,-2.592134 -0.459837,-1.226236 1.274321,-1.876545 1.734159,-0.650309 z"
       inkscape:connector-curvature="0" />
    <path
       style="opacity:0.87099998;fill:#000000;fill-opacity:1;fill-rule:nonzero;stroke:none;stroke-width:0.26199999;stroke-miterlimit:4;stroke-dasharray:none;stroke-dashoffset:74.26771545;stroke-opacity:1"
       id="path1055"
       d="m -45.111458,99.874021 c 0,0.831739 0,1.663479 0,2.495219 0,0.26996 0,0.53991 0,0.80987 0,1.30962 -1.852083,1.30962 -1.852083,0 v 0 c 0,-0.26996 0,-0.53991 0,-0.80987 0,-0.83174 0,-1.66348 0,-2.495219 0,-1.309619 1.852083,-1.309619 1.852083,0 z"
       inkscape:connector-curvature="0" />
    <path
       style="opacity:0.87099998;fill:#000000;fill-opacity:1;fill-rule:nonzero;stroke:none;stroke-width:0.26199999;stroke-miterlimit:4;stroke-dasharray:none;stroke-dashoffset:74.26771545;stroke-opacity:1"
       id="path1057"
       d="m -31.353125,99.344854 c 0,0.806626 0,1.613256 0,2.419886 0,0.11201 0,0.22402 0,0.33604 0,1.30961 -1.852083,1.30961 -1.852083,0 v 0 c 0,-0.11202 0,-0.22403 0,-0.33604 0,-0.80663 0,-1.61326 0,-2.419886 0,-1.309618 1.852083,-1.309618 1.852083,0 z"
       inkscape:connector-curvature="0" />
    <path
       style="opacity:0.87099998;fill:#999999;fill-opacity:1;fill-rule:nonzero;stroke:none;stroke-width:0.99023622;stroke-miterlimit:4;stroke-dasharray:none;stroke-dashoffset:74.26771545;stroke-opacity:1"
       d="m -311.11815,410.55476 c -3.749,-2.1504 -5.79273,-4.2556 -8,-8.24061 l -2.96464,-5.35236 v -28 c 0,-26.90144 0.086,-28.16065 2.19108,-32.09468 2.8964,-5.41276 8.28618,-10.02449 13.54579,-11.59037 6.20517,-1.8474 192.32109,-1.8474 198.52626,0 5.25961,1.56588 10.649388,6.17761 13.545778,11.59037 2.10512,3.93403 2.19109,5.19324 2.19109,32.09468 v 28 l -2.90704,5.24653 c -1.93651,3.49495 -4.46964,6.24924 -7.587548,8.25 l -4.6805,3.00347 h -22.52379 -22.52378 l 0.44247,-2.31459 c 0.48568,-2.5407 -6.311,-29.42771 -7.94646,-31.43541 -1.42606,-1.75065 -6.3217,-1.55879 -8.20192,0.32143 -0.86429,0.86428 -1.57143,2.73951 -1.57143,4.16717 0,2.88102 5.67812,24.7561 7.14114,27.5114 0.86057,1.62069 0.0498,1.75 -10.97208,1.75 h -11.90132 l 1.42311,-6.25 c 0.7827,-3.4375 2.07246,-8.46918 2.86613,-11.1815 0.79366,-2.71233 1.44302,-7.10947 1.44302,-9.77144 0,-4.15295 -0.34439,-4.99685 -2.42626,-5.94541 -3.66712,-1.67086 -7.43184,-0.32474 -8.14852,2.91358 -0.33288,1.50412 -1.24365,5.20977 -2.02394,8.23477 -2.94895,11.43237 -4.4763,19.36211 -3.97898,20.65813 0.42694,1.11258 -8.92043,1.34027 -54.70369,1.33249 l -55.21861,-0.009 z m 180.37392,-0.39844 c 0.60659,-0.7309 1.38412,-8.33829 1.76658,-17.28443 0.61249,-14.32639 0.50572,-16.15639 -1.03243,-17.69453 -1.78799,-1.788 -5.21943,-2.22751 -7.26015,-0.9299 -2.46085,1.56474 -3.31256,6.76052 -3.31256,20.208 0,11.26982 0.29399,14.15746 1.57143,15.4349 1.90629,1.90629 6.77576,2.06294 8.26713,0.26596 z m -78.40999,-2.26596 c 0.86429,-0.86428 1.57143,-2.90978 1.57143,-4.54556 0,-4.61552 -7.00536,-28.23176 -8.79013,-29.63301 -3.47543,-2.7286 -9.20987,-0.14989 -9.20987,4.14157 0,3.58098 7.19555,28.01931 8.79143,29.85843 1.88676,2.17434 5.55559,2.26012 7.63714,0.17857 z m 103.12973,-1.12973 c 1.42473,-1.42473 1.59884,-2.9117 1.07143,-9.15088 -0.34635,-4.09734 -0.62973,-10.72468 -0.62973,-14.72741 0,-7.97332 -1.29166,-10.42055 -5.5,-10.42055 -4.78802,0 -5.5,2.07204 -5.5,16.00633 0,12.52513 0.88647,17.66536 3.31256,19.20801 2.03509,1.29402 5.47026,0.85999 7.24574,-0.9155 z m -168.12945,-0.87055 c 1.34331,-1.34331 1.49898,-3.92273 1.07123,-17.75 -0.45354,-14.66084 -0.37773,-15.70596 0.80826,-11.14258 1.58216,6.08772 2.36607,7.46429 4.25068,7.46429 1.13269,0 1.44098,1.68534 1.44098,7.87756 0,8.61264 0.94881,10.37244 5.59236,10.37244 4.75008,0 5.4315,-1.83067 6.08805,-16.35577 0.53772,-11.89616 0.40888,-13.66208 -1.10738,-15.17834 -2.14368,-2.14368 -5.93395,-2.21211 -8.0016,-0.14446 -1.42857,1.42857 -1.57143,1.33168 -1.57143,-1.06574 0,-3.60569 -1.70958,-6.50569 -3.83519,-6.50569 -2.44197,0 -4.16481,1.95878 -4.16481,4.73518 0,2.07012 -0.24089,2.20627 -2.12217,1.19944 -1.16719,-0.62466 -3.37971,-0.88424 -4.9167,-0.57685 -2.4146,0.48292 -2.93473,0.15671 -3.82581,-2.39943 -0.56721,-1.62709 -1.69289,-2.95834 -2.50151,-2.95834 -2.58165,0 -4.63381,1.17013 -4.63381,2.64217 0,1.10214 -0.44159,1.19186 -1.93426,0.39301 -2.77493,-1.4851 -5.6809,-1.27716 -7.49431,0.53625 -1.25871,1.2587 -1.55668,3.89554 -1.49731,13.25 0.10409,16.39962 0.81424,20.26144 4.06065,22.08202 2.37546,1.33216 2.9061,1.29979 5.39179,-0.3289 l 2.75703,-1.80647 -0.54191,-12.13404 c -0.44566,-9.97881 -0.33763,-11.51238 0.6082,-8.63404 0.79614,2.42279 1.84261,3.59835 3.40012,3.81955 2.11049,0.29974 2.25,0.7962 2.25,8.0066 0,8.30115 1.21268,14.0567 3.23173,15.33823 2.05736,1.30585 5.50811,0.95292 7.19712,-0.73609 z m 37.54952,-1.20969 c 2.13341,-1.72753 2.17796,-2.16723 1.47317,-14.53847 -0.64272,-11.28173 -0.95629,-12.87989 -2.71133,-13.81916 -1.0915,-0.58416 -3.27957,-0.8031 -4.86238,-0.48654 -2.72113,0.54423 -2.87783,0.38957 -2.87783,-2.84041 0,-3.94804 -1.13189,-4.96872 -4.55684,-4.10911 -2.3842,0.5984 -2.44316,0.85111 -2.44316,10.4717 0,10.15811 1.07473,13.05616 4.37253,11.79068 1.0764,-0.41305 1.49905,0.86066 1.8373,5.53686 0.34713,4.79894 0.91903,6.46178 2.72552,7.92459 2.85451,2.31144 4.2576,2.32536 7.04302,0.0699 z m 66.02163,-21.19477 c 0,-9.44776 -0.54925,-10.60476 -4.55684,-9.59892 -2.36274,0.59301 -2.44316,0.90717 -2.44316,9.54445 0,7.41525 0.29266,9.09504 1.72418,9.89616 1.09377,0.6121 2.37346,0.61741 3.5,0.0145 1.49702,-0.80119 1.77582,-2.3486 1.77582,-9.8562 z m -28.2,7.77617 c 0.66,-0.66 1.2,-2.14762 1.2,-3.30583 0,-2.52263 -3.87217,-14.47532 -5.26243,-16.24417 -1.35612,-1.72541 -4.2308,-1.56555 -5.79766,0.32241 -1.0904,1.31385 -0.84215,2.99929 1.50977,10.25 3.26451,10.06416 5.19174,12.13617 8.35032,8.97759 z m 80.2,-10.77617 c 0,-8.41017 -0.62321,-9.5862 -4.55684,-8.59892 -2.33398,0.58579 -2.44316,0.96763 -2.44316,8.54445 0,6.46858 0.31797,8.10921 1.72418,8.89616 1.09377,0.6121 2.37346,0.61741 3.5,0.0145 1.4712,-0.78737 1.77582,-2.30652 1.77582,-8.8562 z"
       id="path1061"
       inkscape:connector-curvature="0"
       transform="scale(0.26458333)" />
  </g>
</svg>
